<svg xmlns="http://www.w3.org/2000/svg" xmlns:xlink="http://www.w3.org/1999/xlink" width="416.383" height="626.445" viewBox="0 0 416.383 626.445">
  <defs>
    <filter id="base" x="0" y="0" width="370.855" height="626.445" filterUnits="userSpaceOnUse">
      <feOffset dx="-10" dy="22" input="SourceAlpha"/>
      <feGaussianBlur stdDeviation="17" result="blur"/>
      <feFlood flood-opacity="0.102"/>
      <feComposite operator="in" in2="blur"/>
      <feComposite in="SourceGraphic"/>
    </filter>
    <clipPath id="clip-path">
      <rect id="Mask" width="319" height="504" fill="none"/>
    </clipPath>
  </defs>
  <g id="Group_4" data-name="Group 4" transform="translate(61 25.964)">
    <g id="Group" transform="matrix(0.999, -0.035, 0.035, 0.999, 0, 11.796)">
      <g transform="matrix(1, 0.03, -0.03, 1, -59.65, -39.87)" filter="url(#base)">
        <rect id="base-2" data-name="base" width="251" height="516" rx="36.45" transform="matrix(1, -0.03, 0.03, 1, 61, 37.76)" fill="#f2f2f2"/>
      </g>
      <path id="Screen" d="M203.974,493.319H24.3A24.28,24.28,0,0,1,0,469.019V24.3A24.28,24.28,0,0,1,24.3,0H53V4.051a13.68,13.68,0,0,0,4.033,9.737,13.68,13.68,0,0,0,9.737,4.033h95.423a13.68,13.68,0,0,0,9.737-4.033,13.68,13.68,0,0,0,4.033-9.737V0h28.011a24.279,24.279,0,0,1,24.3,24.3V469.019a24.28,24.28,0,0,1-24.3,24.3Z" transform="translate(11 11)" fill="#1f28cf"/>
      <g id="Illustration" transform="translate(19)">
        <rect id="Mask-2" data-name="Mask" width="319" height="504" fill="none"/>
        <g id="Illustration-2" data-name="Illustration" clip-path="url(#clip-path)">
          <g id="Group_2" data-name="Group 2" transform="translate(-80.811 -134.489) rotate(14)">
            <g id="Head_Front" data-name="Head/Front" transform="matrix(0.848, 0.53, -0.53, 0.848, 374.408, 70.956)">
              <g id="Head" transform="translate(13.684 18.791)">
                <path id="Head-2" data-name="Head" d="M0,124.7,14.132,58.915C6.251,49.676.916,38.353,1.807,25.666,4.377-10.89,55.332-2.848,65.243,15.6s8.735,65.251-4.075,68.549c-5.109,1.315-15.992-1.906-27.069-8.574l6.953,49.12Z" transform="translate(0 0)" fill="#b28b67"/>
              </g>
              <path id="hair" d="M89.569,92.243c-6.3,0-12.135-4.019-16.439-11.316A44.734,44.734,0,0,1,68.4,69.1,56.916,56.916,0,0,1,66.71,55.225a46.968,46.968,0,0,1,3.163-17.18,32.571,32.571,0,0,1,8.339-12.393,13.761,13.761,0,0,1,4.073-2.887A19,19,0,0,1,85.7,21.3a63.922,63.922,0,0,1,11.132-2.828,105.433,105.433,0,0,1,13.995-1.389c1.345-.047,2.692-.07,4.006-.07.5,0,1,0,1.484.01a17.1,17.1,0,1,1,18.032,17.113,86.117,86.117,0,0,1-19.132,3.25,35.78,35.78,0,0,1,1.1,9.162,51.657,51.657,0,0,1-.954,9.53,7.971,7.971,0,0,0-5.889-3.127A10.279,10.279,0,0,0,99.209,63.2c0,6.747,3.828,11.542,9.526,11.932A45.854,45.854,0,0,1,99.88,87.349C96.4,90.6,92.931,92.243,89.569,92.243Z" transform="translate(-66.71 0)" fill="#191847"/>
            </g>
            <g id="Bottom_Skinny_Jeans_1" data-name="Bottom/Skinny Jeans 1" transform="translate(0.546 333.278)">
              <path id="Skirt_Shadow" data-name="Skirt Shadow" d="M0,26.979S61.533,44.2,106.177,44.2s82.936-26.524,82.936-26.524S128.9,0,89.933,0,0,26.979,0,26.979Z" transform="translate(166.567 140.879)" fill="#1f28cf"/>
              <path id="Leg" d="M103.056,201.632a9.683,9.683,0,0,1-.995-1.944C96.578,185.177,8.75,28.622,0,0H98.883c6.653,21.762,36.6,158.329,40.81,185.576,13.3,42.979,40.671,182.174,44.165,191.817,3.676,10.144-17.009,20.712-22.521,8.241-8.771-19.844-29.669-74.75-38.974-108.276C113.639,245.927,106.536,217.65,103.056,201.632Z" transform="translate(205.2)" fill="#997659"/>
              <path id="Leg-2" data-name="Leg" d="M210.041,220.746c-40.154,10.156-187.028,28.517-197.107,31.4C2.566,255.106-6.525,233.718,6.29,229.085c20.392-7.372,76.581-24.4,110.649-31.355,27.4-5.591,52.407-10.153,69.194-12.824C184.712,137.714,178.21,24.461,182.472,0h87.493c-4.086,23.456-38.629,194.6-45.049,211.736-2.037,6.116-8.117,8.819-14.875,9.01Z" transform="translate(17.316 0)" fill="#b28b67"/>
              <g id="Left_Shoe" data-name="Left Shoe" transform="matrix(0.174, 0.985, -0.985, 0.174, 66.519, 211.329)">
                <path id="shoe" d="M4.474,5.033A2,2,0,0,0,1.908,6.381L0,13.106A64.242,64.242,0,0,0,.9,21H57.3s2.2-7.268-2.538-7.848-7.87-1.047-7.87-1.047L20.68.419a1,1,0,0,0-1.332.532L17.663,5.039s-4.385,2.046-7.127,2.046Z" transform="translate(1 19)" fill="#e4e4e4"/>
              </g>
              <g id="Right_Shoe" data-name="Right Shoe" transform="translate(355.68 340.548)">
                <path id="shoe-2" data-name="shoe" d="M7.65,8.377a3.42,3.42,0,0,0-4.386,2.308L0,22.192C0,26.821,1.541,35.7,1.541,35.7H97.988s3.759-12.438-4.34-13.43S80.19,20.48,80.19,20.48L35.363.481a1.71,1.71,0,0,0-2.277.911l-2.881,7s-7.5,3.5-12.186,3.5Z" transform="translate(1.71 32.751)" fill="#e4e4e4"/>
              </g>
              <path id="Skirt" d="M39.945,7.9s57.833-16.559,109.44,0c11.97,54.654,41.055,76.347,46.17,160.141-58.14,28.91-129.96-20.618-189.81,7.575C-11.355,136.178,12.585,41.207,39.945,7.9Z" transform="translate(160.125 -7.897)" fill="#2b44ff"/>
            </g>
            <g id="Body_Long_Sleeve_1" data-name="Body/Long Sleeve 1" transform="translate(139.534 108.688) rotate(21)">
              <path id="Skin" d="M2.1,153.519c-1.909-1.176-4-5.6,1.051-9.061,12.586-8.619,30.723-23.7,33.173-28.667C41.336,105.636,58.405,6.657,58.405,6.657L94.149,6.8S61.044,113.528,58.405,120.057c-3.958,9.8,4.418,24.715,8,32.732-5.645,2.523-8.268-.7-11.139-3.919-3.06-3.433-6.406-6.866-14-3.338-9.716,4.515-17.75,11.681-27.325,11.68A22.239,22.239,0,0,1,2.1,153.519Zm305.67-96.043L257.383,27.81,273.476,0l48.456,47.207q21.147,9.007,34.654,19.894c2.026,2.44,4.23,7.113-5.3,5.023s-19.645-3.863-21.435-.77,3.485,7.836.175,11.887a1.253,1.253,0,0,1-1.015.484Q324.454,83.725,307.769,57.476Z" transform="translate(58.435 152.239)" fill="#b28b67"/>
              <path id="Coat_Back" data-name="Coat Back" d="M0,3.811,14.513,0Q60.871,91.6,162.476,160.885l-42.7,62.133C50.133,154.9,4.526,82.332,0,3.811Z" transform="matrix(0.996, 0.087, -0.087, 0.996, 218.754, 5.311)" fill="#191847"/>
              <path id="Shirt" d="M0,194.734H131.708S85.937,83.6,85.937,5.912L46.208,0C14.984,50.15,6.166,111.895,0,194.734Z" transform="translate(153.944)" fill="#dde3e9"/>
              <path id="Coat_Front" data-name="Coat Front" d="M0,251.1C14.4,88.819,105.2,0,105.2,0l.031.027L105.249,0h2.594c4.655.16,14.18.577,14.18.577l9.6,27.4c1.524,50.106,17.791,201.958,17.791,201.958H63.2q.22,10.443.993,21.171Z" transform="translate(94.077 0)" fill="#2f3676"/>
              <path id="Shade" d="M24.124,84.553H.106A435.851,435.851,0,0,1,6.6,0,458.765,458.765,0,0,0,12.4,47.292c3.129,16.926,7.073,29.461,11.723,37.258Z" transform="translate(157.188 146.054)" fill="rgba(0,0,0,0.1)"/>
              <path id="Light" d="M0,19.765,42.573,0V19.765Z" transform="translate(176.37 157.887)" fill="rgba(255,255,255,0.2)"/>
            </g>
          </g>
        </g>
      </g>
    </g>
  </g>
</svg>
