<svg id="Layer_1" height="512" viewBox="0 0 512 512" width="512" xmlns="http://www.w3.org/2000/svg" data-name="Layer 1"><path d="m271.8 434.69a105.779 105.779 0 1 1 97.27 64.19 105.239 105.239 0 0 1 -97.27-64.19z" fill="#00efd1"/><path d="m150.86 26.39a28.18 28.18 0 0 1 31.27-12.28l31.7 8.56a93.822 93.822 0 0 0 39.1 2.12l69.22-10.89c0 23.6-9.27 48.38-29.2 58.66a41.927 41.927 0 0 1 -6.81 2.8s-68.48 10.52-112.39 13.07c-6.08.36-11.68.56-16.57.56a10.584 10.584 0 0 1 -10.59-10.59v-37.08a27.918 27.918 0 0 1 4.27-14.93z" fill="#4b5d63"/><path d="m135.89 292.16a93.035 93.035 0 0 0 120.31 1.2l1.46-1.2h42.61a56.016 56.016 0 0 1 23.76 5.24 105.858 105.858 0 0 0 -52.23 137.29h-234.64v-86.16a56.375 56.375 0 0 1 56.38-56.37z" fill="#00acea"/><path d="m257.66 252.09a93.653 93.653 0 0 1 -121.52-.01 99.069 99.069 0 0 1 -35.39-75.65v-57.91h.3c10.91 1.76 40.75 4.69 72.71-29.9l-.01-.19c43.91-2.55 112.39-13.07 112.39-13.07a41.927 41.927 0 0 0 6.81-2.8l.11.22v103.65a98.952 98.952 0 0 1 -28.16 68.94 97.766 97.766 0 0 1 -7.24 6.72zm10.34-95.2a30.14 30.14 0 1 0 -30.14 30.14 30.148 30.148 0 0 0 30.14-30.14zm-81.91 0a30.14 30.14 0 1 0 -30.14 30.14 30.141 30.141 0 0 0 30.14-30.14z" fill="#f7caa5"/><circle cx="237.86" cy="156.89" fill="#00efd1" r="30.14"/><path d="m257.66 252.09v40.07l-1.46 1.2a93.035 93.035 0 0 1 -120.31-1.2v-39.78l.25-.3a93.653 93.653 0 0 0 121.52.01z" fill="#edb288"/><circle cx="155.95" cy="156.89" fill="#00efd1" r="30.14"/><path d="m173.75 88.43.01.19c-31.96 34.59-61.8 31.66-72.71 29.9h-.3v-7.73a96.154 96.154 0 0 1 50.11-84.4 27.918 27.918 0 0 0 -4.27 14.93v37.08a10.584 10.584 0 0 0 10.59 10.59c4.89 0 10.49-.2 16.57-.56z" fill="#4b5d63"/><g fill="#083863"><path d="m369.07 281.35a110.562 110.562 0 0 0 -45.1 9.4 61.83 61.83 0 0 0 -23.7-4.75h-36.27v-31.164a72.736 72.736 0 0 0 5.339-5.28 104.151 104.151 0 0 0 29.661-73.126v-100.47c15-9.234 29.121-29.7 29.121-62.06a5.976 5.976 0 0 0 -6.911-5.927l-69.216 10.89a87.262 87.262 0 0 1 -36.6-1.986l-31.7-8.56a33.834 33.834 0 0 0 -36.921 13.568 102.072 102.072 0 0 0 -51.773 88.905v65.64a105.8 105.8 0 0 0 35 78.17v31.4h-36.46a62.72 62.72 0 0 0 -62.54 62.53v86.16a6.411 6.411 0 0 0 6.16 6.31h230.761a111.727 111.727 0 0 0 101.149 64.035c61.63 0 111.77-50.213 111.77-111.837s-50.14-111.848-111.77-111.848zm-227.07-17.534a99.616 99.616 0 0 0 55.125 16.654c19.379 0 37.875-5.8 54.875-16.48v25.315c-16 12.59-35.049 19.525-55.015 19.525-20.017 0-39.985-6.913-54.985-19.492zm13.945-234.241a22.1 22.1 0 0 1 18.766-10.454 22.457 22.457 0 0 1 5.854.781l31.7 8.559a99.189 99.189 0 0 0 41.6 2.256l62-9.754c-1.769 21.2-11.448 38.934-25.67 46.27a36.058 36.058 0 0 1 -5.419 2.267c-6.071.921-70.108 10.544-111.373 12.94-6.162.365-11.618.55-16.216.55a4.116 4.116 0 0 1 -3.031-1.332 4.41 4.41 0 0 1 -1.156-3.258v-37.08a21.823 21.823 0 0 1 3.146-11.737zm-14.993 10.825c-.009.308.048.613.048.922v37.078a16.24 16.24 0 0 0 16.282 16.59c.419 0 .926 0 1.357-.006-16.293 13.688-33.639 19.8-51.639 18.2v-2.394a90.227 90.227 0 0 1 33.952-70.39zm-33.952 136.03v-51.213c2 .136 3.551.21 5.35.21 28.147 0 50.024-16.083 64.405-31.166 43.754-2.786 109.623-12.867 110.3-12.97h-.052v95.139a93.244 93.244 0 0 1 -33.218 71.07 87.47 87.47 0 0 1 -113.664-.011 92.552 92.552 0 0 1 -33.121-71.059zm-64 172.1a50.707 50.707 0 0 1 50.54-50.53h40.153a99.038 99.038 0 0 0 126.118 0h40.459a50.853 50.853 0 0 1 8.692.831 112.69 112.69 0 0 0 -51.652 94.4 115.031 115.031 0 0 0 5.79 35.769h-220.1zm326.07 144.35a99.664 99.664 0 0 1 -90.961-58.787 5.963 5.963 0 0 0 -1.443-3.333 98.963 98.963 0 0 1 -7.356-37.64 100.241 100.241 0 0 1 57.278-90.293 98.718 98.718 0 0 1 42.478-9.476 99.765 99.765 0 1 1 0 199.53z"/><path d="m348.447 353.571a6 6 0 0 0 -8.426-1.008l-45.08 35.451a6 6 0 0 0 0 9.433l45.08 35.44a6 6 0 1 0 7.416-9.434l-39.081-30.724 39.083-30.729a6 6 0 0 0 1.008-8.429z"/><path d="m388.333 353.571a6 6 0 0 0 1.008 8.429l39.082 30.733-39.081 30.724a6 6 0 1 0 7.416 9.434l45.08-35.44a6 6 0 0 0 0-9.433l-45.08-35.451a6 6 0 0 0 -8.425 1.004z"/><path d="m377.287 334.208a6.008 6.008 0 0 0 -6.83 5.035l-16 105.739a6 6 0 1 0 11.865 1.795l16-105.739a6 6 0 0 0 -5.035-6.83z"/><path d="m191.921 160.348a10.768 10.768 0 0 1 9.968 0 36.122 36.122 0 1 0 .962-12.438 22.82 22.82 0 0 0 -11.892 0 36.155 36.155 0 1 0 .962 12.439zm45.939-27.6a24.14 24.14 0 1 1 -24.14 24.14 24.167 24.167 0 0 1 24.14-24.138zm-106.05 24.142a24.14 24.14 0 1 1 24.14 24.14 24.167 24.167 0 0 1 -24.14-24.14z"/></g></svg>